# xmcd
#
# Track frame offsets:
# 150
# 14978
# 28877
# 38358
# 50011
# 59889
# 71864
# 85165
# 98478
# 109674
#
# Disc length: 1637 seconds
#
#
# Revision: 0
# Processed by: cddbd v1.5.2PL0 Copyright (c) Steve Scherf et al.
# Submitted via: FreeRIP 2.945 
#
DISCID=8b06630a
DTITLE=Solos de Viola - Músicas Tradicionais
DYEAR=2007
DGENRE=Instrumental
TTITLE0=Campeões da Luz
TTITLE1=Um pendão Real
TTITLE2=Sê Valente
TTITLE3=Já Refulge a Glôria
TTITLE4=Nosso Redentor foi preparar
TTITLE5=Nossa Esperança
TTITLE6=Sou um Soldado
TTITLE7=Eu confio firmemente
TTITLE8=Cristo voltará
TTITLE9=É o tempo de segar
EXTD=
EXTT0=
EXTT1=
EXTT2=
EXTT3=
EXTT4=
EXTT5=
EXTT6=
EXTT7=
EXTT8=
EXTT9=
PLAYORDER=
